<?xml version="1.0" encoding="UTF-8"?>
<svg width="30px" height="30px" viewBox="0 0 30 30" version="1.1" xmlns="http://www.w3.org/2000/svg" xmlns:xlink="http://www.w3.org/1999/xlink">
    <!-- Generator: Sketch 59.1 (86144) - https://sketch.com -->
    <title>icon-warning</title>
    <desc>Created with Sketch.</desc>
    <g id="Page-1" stroke="none" stroke-width="1" fill="none" fill-rule="evenodd">
        <g id="LYRICS_v4" transform="translate(-327.000000, -664.000000)" fill="#111F27">
            <g id="icon-warning" transform="translate(327.000000, 664.000000)">
                <g id="icon_Warning-12">
                    <path d="M29.837499,10.2402778 C29.8034712,10.2027778 19.7916663,0.184027778 19.7916663,0.184027778 C19.6745124,0.0663591198 19.5153502,0 19.3493052,0 L10.6506948,0 C10.4846498,0 10.3254876,0.0663591198 10.2083337,0.184027778 C10.2083337,0.184027778 0.196528818,10.2027778 0.162501043,10.2402778 C0.0576710143,10.3556109 0,10.5059499 0,10.6618056 L0,19.3381944 C0,19.4940501 0.0576710143,19.6443891 0.162501043,19.7597222 C0.196528818,19.7972222 10.2777781,29.8861111 10.2777781,29.8861111 C10.3909725,29.9993056 10.547917,30 10.7208336,30 L19.2798608,30 C19.4527775,30 19.6097219,30 19.7229163,29.8861111 C19.7229163,29.8861111 29.8034712,19.7972222 29.837499,19.7597222 C29.942329,19.6443891 30,19.4940501 30,19.3381944 L30,10.6618056 C30,10.5059499 29.942329,10.3556109 29.837499,10.2402778 Z M26.6909714,18.1805556 L18.1624998,26.6152778 C18.0445038,26.7786323 17.8549842,26.8750727 17.653472,26.8743101 L12.2076391,26.8743101 C12.0061269,26.8750727 11.8166073,26.7786323 11.6986113,26.6152778 L3.3090286,18.2506944 C3.1908476,18.1330313 3.12459167,17.9730169 3.12499895,17.80625 L3.12499895,12.1930556 C3.12459167,12.0262886 3.1908476,11.8662743 3.3090286,11.7486111 L11.6986113,3.38402778 C11.8166073,3.22067324 12.0061269,3.12423285 12.2076391,3.12499546 L17.7229165,3.12499546 C17.9243899,3.12499546 18.1136397,3.22164062 18.2319442,3.38472222 L26.6909714,11.81875 C26.8089813,11.9362435 26.8749997,12.0959737 26.8749997,12.2625 L26.8749997,17.7368056 C26.8749997,17.9033319 26.8089813,18.063062 26.6909714,18.1805556 Z" id="Shape" fill-rule="nonzero"></path>
                    <path d="M12.972973,12.657649 C12.97337,12.3841529 13.2106283,12.162533 13.5034234,12.1621622 L16.2162162,12.1621622 L16.2162162,22.2065426 C16.2162162,22.4803016 15.978842,22.7023313 15.6857658,22.7027027 L12.972973,22.7027027 L12.972973,12.657649 Z" id="Path" fill-rule="nonzero"></path>
                    <path d="M12.972973,7.70251918 C12.972973,7.47872131 13.2104637,7.2972973 13.5034234,7.2972973 L16.2162162,7.2972973 L16.2162162,9.32395728 C16.2162162,9.54784438 15.978842,9.72942595 15.6857658,9.72972973 L12.972973,9.72972973 L12.972973,7.70251918 Z" id="Path" fill-rule="nonzero"></path>
                </g>
            </g>
        </g>
    </g>
</svg>