<svg id="Icons" xmlns="http://www.w3.org/2000/svg" viewBox="0 0 432 432"><defs><style>.cls-1{fill:#111f27;}</style></defs><title>icons_PA27</title><path class="cls-1" d="M241.61,278.24l.11-.11h.15V278l18.45-18.45,32.38,32.4,109.32.45.29-50.94L300.61,265,271.75,248.1l6.23-6.23h.15v-.15l.11-.11-.11-.11V215.82h45.64l77.62-77-35.82-36.23L310.3,191.18l-32.17,8.43v-9.17l.11-.11-.11-.1v-.16H278l-18-18,32-32,.45-109.32-50.94-.29L265,132.14,248.4,160.49,241.87,154v-.16h-.15l-.11-.11-.11.11H215.82V109l-77-77.62L102.62,67.18l88.56,55.27,8.22,31.36h-9l-.11-.11-.1.11h-.16V154l-18.44,18.44-31.58-31.59-109.32-.45-.29,50.94,101.7-23.53L160,184.05l-6,6h-.16v.16l-.1.1.1.11v26.49H109l-77.62,77,35.82,36.23,55.27-88.56,31.36-8.22v8.15l-.1.11.1.11v.15H154l18.84,18.85-32,32L140.37,402l50.94.29-23.53-101.7,16.57-28.35,5.72,5.72v.15h.16l.1.11.11-.11h26.49v45.64l77,77.62,36.23-35.82L241.57,310.3l-8.43-32.17h8.36Zm-.6-52,0,.05v.06h-.06l-14.52,14.52V241h-.06l-.05,0,0,0H205.7l0,0,0,0h-.06v-.06L191,226.39H191v-.06l0-.05,0,0V205.7l0,0,0,0v-.06H191L205.56,191V191h.06l0,0,0,0h20.54l0,0,.05,0h.06V191l14.52,14.52H241v.06l0,0,0,0v20.54Z"/></svg>