<svg id="Icons" xmlns="http://www.w3.org/2000/svg" viewBox="0 0 432 432"><defs><style>.cls-1{fill:#111f27;}</style></defs><title>icons_PA27</title><path class="cls-1" d="M432.37,305.1V127.65l.38-.37-.38-.38v-.53h-.53L306.37.9V.37h-.53L305.47,0l-.37.37H127.65L127.28,0l-.38.37h-.53V.9L.9,126.37H.37v.53l-.37.38.37.37V305.1l-.37.37.37.37v.53H.9L126.37,431.84v.53h.53l.38.38.37-.38H305.1l.37.38.37-.38h.53v-.53L431.84,306.37h.53v-.53l.38-.37Zm-45-17.9L287.2,387.36H145.55L45.39,287.2V145.55L145.55,45.39H287.2L387.36,145.55Z"/></svg>